{
	"asset":{
		"generator":"Khronos glTF Blender I/O v3.6.28",
		"version":"2.0"
	},
	"scene":0,
	"scenes":[
		{
			"name":"Scene",
			"nodes":[
				0
			]
		}
	],
	"nodes":[
		{
			"mesh":0,
			"name":"Plane",
			"scale":[
				12.5,
				1,
				12.5
			],
			"translation":[
				12,
				-0.5,
				-12
			]
		}
	],
	"meshes":[
		{
			"name":"Plane",
			"primitives":[
				{
					"attributes":{
						"POSITION":0,
						"NORMAL":1,
						"TEXCOORD_0":2
					},
					"indices":3
				}
			]
		}
	],
	"accessors":[
		{
			"bufferView":0,
			"componentType":5126,
			"count":3520,
			"max":[
				1,
				1,
				1
			],
			"min":[
				-1,
				0,
				-1
			],
			"type":"VEC3"
		},
		{
			"bufferView":1,
			"componentType":5126,
			"count":3520,
			"type":"VEC3"
		},
		{
			"bufferView":2,
			"componentType":5126,
			"count":3520,
			"type":"VEC2"
		},
		{
			"bufferView":3,
			"componentType":5123,
			"count":7500,
			"type":"SCALAR"
		}
	],
	"bufferViews":[
		{
			"buffer":0,
			"byteLength":42240,
			"byteOffset":0,
			"target":34962
		},
		{
			"buffer":0,
			"byteLength":42240,
			"byteOffset":42240,
			"target":34962
		},
		{
			"buffer":0,
			"byteLength":28160,
			"byteOffset":84480,
			"target":34962
		},
		{
			"buffer":0,
			"byteLength":15000,
			"byteOffset":112640,
			"target":34963
		}
	],
	"buffers":[
		{
			"byteLength":127640,
			"uri":"data:application/octet-stream;base64,"
		}
	]
}
